<svg xmlns="http://www.w3.org/2000/svg" width="26" height="26" viewBox="0 0 26 26" fill="none">
    <path d="M12.8337 0.166626C15.3718 0.166626 17.853 0.919288 19.9635 2.32943C22.0739 3.73958 23.7188 5.74387 24.6901 8.08886C25.6614 10.4338 25.9156 13.0142 25.4204 15.5036C24.9252 17.993 23.703 20.2797 21.9082 22.0745C20.1134 23.8693 17.8267 25.0915 15.3373 25.5867C12.8479 26.0819 10.2675 25.8277 7.92255 24.8564C5.57756 23.8851 3.57327 22.2402 2.16313 20.1298C0.752981 18.0193 0.000320435 15.5382 0.000320435 13C0.0043335 9.59758 1.3577 6.3357 3.76355 3.92986C6.1694 1.52401 9.43127 0.17064 12.8337 0.166626ZM7.00032 14.1666H11.667V18.8333C11.667 19.1427 11.7899 19.4395 12.0087 19.6583C12.2275 19.877 12.5242 20 12.8337 20C13.1431 20 13.4398 19.877 13.6586 19.6583C13.8774 19.4395 14.0003 19.1427 14.0003 18.8333V14.1666H18.667C18.9764 14.1666 19.2732 14.0437 19.4919 13.8249C19.7107 13.6061 19.8337 13.3094 19.8337 13C19.8337 12.6905 19.7107 12.3938 19.4919 12.175C19.2732 11.9562 18.9764 11.8333 18.667 11.8333H14.0003V7.16663C14.0003 6.85721 13.8774 6.56046 13.6586 6.34167C13.4398 6.12288 13.1431 5.99996 12.8337 5.99996C12.5242 5.99996 12.2275 6.12288 12.0087 6.34167C11.7899 6.56046 11.667 6.85721 11.667 7.16663V11.8333H7.00032C6.6909 11.8333 6.39415 11.9562 6.17536 12.175C5.95657 12.3938 5.83365 12.6905 5.83365 13C5.83365 13.3094 5.95657 13.6061 6.17536 13.8249C6.39415 14.0437 6.6909 14.1666 7.00032 14.1666Z" fill="white"/>
</svg>