<svg xmlns="http://www.w3.org/2000/svg" width="25" height="30" viewBox="0 0 25 30" fill="none">
    <path d="M12.5 0C9.77865 0 7.46094 1.56445 6.60807 3.75H4.16667C1.86849 3.75 0 5.43164 0 7.5V26.25C0 28.3184 1.86849 30 4.16667 30H20.8333C23.1315 30 25 28.3184 25 26.25V7.5C25 5.43164 23.1315 3.75 20.8333 3.75H18.3919C17.5391 1.56445 15.2214 0 12.5 0ZM12.5 3.75C13.0525 3.75 13.5824 3.94754 13.9731 4.29917C14.3638 4.65081 14.5833 5.12772 14.5833 5.625C14.5833 6.12228 14.3638 6.59919 13.9731 6.95083C13.5824 7.30246 13.0525 7.5 12.5 7.5C11.9475 7.5 11.4176 7.30246 11.0269 6.95083C10.6362 6.59919 10.4167 6.12228 10.4167 5.625C10.4167 5.12772 10.6362 4.65081 11.0269 4.29917C11.4176 3.94754 11.9475 3.75 12.5 3.75ZM8.33333 15C8.33333 14.0054 8.77232 13.0516 9.55372 12.3483C10.3351 11.6451 11.3949 11.25 12.5 11.25C13.6051 11.25 14.6649 11.6451 15.4463 12.3483C16.2277 13.0516 16.6667 14.0054 16.6667 15C16.6667 15.9946 16.2277 16.9484 15.4463 17.6516C14.6649 18.3549 13.6051 18.75 12.5 18.75C11.3949 18.75 10.3351 18.3549 9.55372 17.6516C8.77232 16.9484 8.33333 15.9946 8.33333 15ZM5.20833 25.3125C5.20833 22.7227 7.53906 20.625 10.4167 20.625H14.5833C17.4609 20.625 19.7917 22.7227 19.7917 25.3125C19.7917 25.8281 19.3229 26.25 18.75 26.25H6.25C5.67708 26.25 5.20833 25.8281 5.20833 25.3125Z" fill="#3D7CF3"/>
</svg>