<svg xmlns="http://www.w3.org/2000/svg" width="25" height="20" viewBox="0 0 25 20" fill="none">
    <path d="M16.082 11.5479C16.082 13.6432 14.3775 15.3477 12.2822 15.3477C10.187 15.3477 8.48314 13.6432 8.48314 11.5479C8.48314 9.45267 10.187 7.74819 12.2822 7.74819C14.3775 7.74819 16.082 9.45332 16.082 11.5479ZM24.0625 6.15247V16.9447C24.0625 18.3835 22.896 19.55 21.4573 19.55H3.1072C1.66845 19.55 0.501953 18.3835 0.501953 16.9447V6.15247C0.501953 4.71372 1.66845 3.54722 3.1072 3.54722H6.31166V2.6458C6.31166 1.38682 7.33162 0.366211 8.59125 0.366211H15.9732C17.2329 0.366211 18.2528 1.38682 18.2528 2.6458V3.54657H21.4573C22.896 3.54722 24.0625 4.71372 24.0625 6.15247ZM18.0359 11.5479C18.0359 8.3754 15.4548 5.79425 12.2822 5.79425C9.11035 5.79425 6.5292 8.3754 6.5292 11.5479C6.5292 14.7205 9.11035 17.3016 12.2822 17.3016C15.4548 17.3016 18.0359 14.7205 18.0359 11.5479Z" fill="#28382B"/>
</svg>