<svg xmlns="http://www.w3.org/2000/svg" width="18" height="16" viewBox="0 0 18 16" fill="none">
    <g clip-path="url(#clip0_4615_5398)">
        <path d="M9.0002 1C6.4752 1 4.45332 2.15 2.98145 3.51875C1.51895 4.875 0.54082 6.5 0.0783203 7.61562C-0.0248047 7.8625 -0.0248047 8.1375 0.0783203 8.38437C0.54082 9.5 1.51895 11.125 2.98145 12.4812C4.45332 13.85 6.4752 15 9.0002 15C11.5252 15 13.5471 13.85 15.0189 12.4812C16.4814 11.1219 17.4596 9.5 17.9252 8.38437C18.0283 8.1375 18.0283 7.8625 17.9252 7.61562C17.4596 6.5 16.4814 4.875 15.0189 3.51875C13.5471 2.15 11.5252 1 9.0002 1ZM4.5002 8C4.5002 6.80653 4.9743 5.66193 5.81821 4.81802C6.66213 3.97411 7.80672 3.5 9.0002 3.5C10.1937 3.5 11.3383 3.97411 12.1822 4.81802C13.0261 5.66193 13.5002 6.80653 13.5002 8C13.5002 9.19347 13.0261 10.3381 12.1822 11.182C11.3383 12.0259 10.1937 12.5 9.0002 12.5C7.80672 12.5 6.66213 12.0259 5.81821 11.182C4.9743 10.3381 4.5002 9.19347 4.5002 8ZM9.0002 6C9.0002 7.10313 8.10332 8 7.0002 8C6.77832 8 6.56582 7.9625 6.36582 7.89687C6.19395 7.84062 5.99395 7.94688 6.0002 8.12813C6.00957 8.34375 6.04082 8.55937 6.1002 8.775C6.52832 10.375 8.17519 11.325 9.7752 10.8969C11.3752 10.4688 12.3252 8.82188 11.8971 7.22188C11.5502 5.925 10.4033 5.05312 9.12832 5C8.94707 4.99375 8.84082 5.19062 8.89707 5.36562C8.9627 5.56562 9.0002 5.77812 9.0002 6Z" fill="black"/>
    </g>
    <defs>
        <clipPath id="clip0_4615_5398">
            <rect width="18" height="16" fill="white"/>
        </clipPath>
    </defs>
</svg>