<svg xmlns="http://www.w3.org/2000/svg" width="16" height="16" viewBox="0 0 16 16" fill="none">
    <g clip-path="url(#clip0_4615_5396)">
        <path d="M14.7375 0.678076C14.0531 -0.00629884 12.9469 -0.00629884 12.2625 0.678076L11.3219 1.61558L14.3813 4.67495L15.3219 3.73433C16.0063 3.04995 16.0063 1.9437 15.3219 1.25933L14.7375 0.678076ZM5.3875 7.55308C5.19687 7.7437 5.05 7.97808 4.96562 8.23745L4.04063 11.0125C3.95 11.2812 4.02188 11.5781 4.22188 11.7812C4.42188 11.9843 4.71875 12.0531 4.99062 11.9625L7.76562 11.0375C8.02188 10.9531 8.25625 10.8062 8.45 10.6156L13.6781 5.38433L10.6156 2.32183L5.3875 7.55308ZM3 1.99995C1.34375 1.99995 0 3.3437 0 4.99995V13C0 14.6562 1.34375 16 3 16H11C12.6562 16 14 14.6562 14 13V9.99995C14 9.44683 13.5531 8.99995 13 8.99995C12.4469 8.99995 12 9.44683 12 9.99995V13C12 13.5531 11.5531 14 11 14H3C2.44688 14 2 13.5531 2 13V4.99995C2 4.44683 2.44688 3.99995 3 3.99995H6C6.55312 3.99995 7 3.55308 7 2.99995C7 2.44683 6.55312 1.99995 6 1.99995H3Z" fill="black"/>
    </g>
    <defs>
        <clipPath id="clip0_4615_5396">
            <rect width="16" height="16" fill="white"/>
        </clipPath>
    </defs>
</svg>